<svg id="Layer_1" data-name="Layer 1" xmlns="http://www.w3.org/2000/svg" width="433" height="164.31" viewBox="0 0 433 164.31">
  <defs>
    <style>
      .cls-1 {
        fill: #e4a223;
      }

      .cls-2 {
        fill: none;
        stroke: #e4a223;
        stroke-miterlimit: 10;
        stroke-width: 0.1px;
      }

      .cls-3 {
        fill: #3d6e35;
        fill-rule: evenodd;
      }

      .cls-4 {
        fill: #881d22;
      }

      .cls-5 {
        fill: #231f20;
      }
    </style>
  </defs>
  <title>NTS_logo</title>
  <g>
    <path d="M297.44,72.24c-14.46,0-25-2.95-40.94-10.53l8.56-16.93c12.6,6.5,23,9,31,9s16.24-1.48,16.24-5.12c0-3.15-12.69-3.93-19.88-4.33-15.74-.88-35.63-4.53-35.63-21.36C256.79,3.84,282.38,0,297.15,0c13.09,0,25.39,3.25,39.76,10.24l-7.28,15.05a79.42,79.42,0,0,0-32.48-6.89c-12.11,0-14.57,2.46-14.57,3.94,0,2.56,12,3.05,16.44,3.05,15.35,1.18,39.17,3.35,39.17,23.13,0,19.1-21.85,23.72-40.75,23.72"/>
    <path d="M133.16,37.2c0,4.63-.09,8.08-.09,33.37h-26v-31m86.22-3.46v34.5H179.13l-46-33.37m-26.08,2.33v-38h16.73l43.71,31.5c0-4.23.19-7.58.19-31.5H193.3v34.5"/>
    <path d="M270.31,1.54v0H183.63V20.18h30.51l.1,50.49h26.87V20.18h12.45c1.29-9.17,7.7-15.83,16.75-18.64"/>
    <path class="cls-1" d="M323.76,29.78c8.17,3.12,14.42,8.63,14.42,18.77,0,19.1-21.85,23.72-40.74,23.72-14.47,0-25-3-40.95-10.53l8.56-16.93c12.6,6.5,23,9,31,9s16.24-1.48,16.24-5.12c0-3.15-12.7-3.94-19.88-4.33C282.13,43.74,270.08,42,263,36.15"/>
    <path class="cls-2" d="M323.76,29.78c8.17,3.12,14.42,8.63,14.42,18.77,0,19.1-21.85,23.72-40.74,23.72-14.47,0-25-3-40.95-10.53l8.56-16.93c12.6,6.5,23,9,31,9s16.24-1.48,16.24-5.12c0-3.15-12.7-3.94-19.88-4.33C282.13,43.74,270.08,42,263,36.15"/>
    <path class="cls-1" d="M133.07,57.35c0,3.59,0,7.94,0,13.25h-26V62.22M193.3,44.88V70.6H179.12l-24.9-18.07M193.3,36.1v8.78"/>
    <path class="cls-2" d="M133.07,57.35c0,3.59,0,7.94,0,13.25h-26V62.22M193.3,44.88V70.6H179.12l-24.9-18.07M193.3,36.1v8.78"/>
    <polyline class="cls-1" points="214.18 41.6 214.23 70.7 241.1 70.7 241.1 39.55"/>
    <polyline class="cls-2" points="214.18 41.6 214.23 70.7 241.1 70.7 241.1 39.55"/>
    <path class="cls-3" d="M397.62,23.47C347,26,347,26,261.23,33.47,113.66,46.34-3.27,83.69.07,122,1.75,141.24,33.67,156,83.8,164.31c-36.28-8.66-58.57-21.59-60-37.62C21.07,95,100.36,62.34,212.09,46.55,336,29,372,28.3,397.62,23.47"/>
    <polygon class="cls-4" points="71.65 96.03 75.29 96.03 75.29 115.55 71.65 115.55 58.6 101.3 58.67 104.4 58.67 115.55 55.03 115.55 55.03 96.03 58.67 96.03 71.72 110.31 71.65 107.18 71.65 96.03"/>
    <path class="cls-4" d="M96.2,115.55a14,14,0,0,1-3,.42c-2.89,0-3-1.68-3.11-2.57-1.18,1.59-4,2.57-6.23,2.57-3.52,0-5.92-1.87-5.92-5.3s3.1-4.55,6.21-4.55a19.21,19.21,0,0,1,5.75.92c-.12-1.47-1.33-2.65-4.66-2.65a17,17,0,0,0-5.36.81l-1.16-3.65a20.13,20.13,0,0,1,6.52-1.06c6.11,0,8.32,3,8.32,7v3.6c0,.52.17,1,1.19,1a6.57,6.57,0,0,0,1.43-.2Zm-11.69-3.12c2.33,0,5.31-1.31,5.43-3v-.53H84c-1.17,0-2.31.34-2.31,1.48,0,1.45,1.29,2,2.84,2"/>
    <path class="cls-4" d="M102,100.91h3.71v3.46H102v6.44c0,1.34.48,1.67,1.65,1.67.53,0,1.21-.08,2.06-.14v3.21a15.48,15.48,0,0,1-3.1.42c-2.72,0-4.25-1.34-4.25-5.16v-6.44h-1.7v-3.46h1.7V97.29l3.64-.42Z"/>
    <path class="cls-4" d="M108.17,95.81h3.64v3.34h-3.64Zm0,19.74V101.1l3.64-.41v14.86Z"/>
    <path class="cls-4" d="M123,100.49c5.62,0,8.73,3.23,8.73,7.73S128.59,116,123,116s-8.74-3.27-8.74-7.75,3.11-7.73,8.74-7.73m0,11.6c3.34,0,5-1.64,5-3.87s-1.68-3.85-5-3.85-5,1.62-5,3.85,1.68,3.87,5,3.87"/>
    <path class="cls-4" d="M147.06,115.55v-7.39c0-2.18-.87-3.79-4.56-3.79a21.18,21.18,0,0,0-5.22.86v10.32h-3.64V101.1l3.52-.41.1,1.14,0,0a11.75,11.75,0,0,1,5.58-1.37c5.65,0,7.84,3.26,7.84,7.64v7.42Z"/>
    <path class="cls-4" d="M171.37,115.55a14.07,14.07,0,0,1-3,.42c-2.88,0-3-1.68-3.1-2.57-1.19,1.59-4,2.57-6.24,2.57-3.51,0-5.91-1.87-5.91-5.3s3.1-4.55,6.21-4.55a19.13,19.13,0,0,1,5.74.92c-.12-1.47-1.33-2.65-4.65-2.65a17,17,0,0,0-5.36.81l-1.17-3.65a20.21,20.21,0,0,1,6.53-1.06c6.11,0,8.32,3,8.32,7v3.6c0,.52.17,1,1.19,1a6.57,6.57,0,0,0,1.43-.2Zm-11.69-3.12c2.32,0,5.31-1.31,5.43-3v-.53h-6c-1.16,0-2.3.34-2.3,1.48,0,1.45,1.28,2,2.84,2"/>
    <polygon class="cls-4" points="173.31 96.03 176.95 95.61 176.95 115.55 173.31 115.55 173.31 96.03"/>
    <polygon class="cls-4" points="200.48 99.93 200.48 115.55 196.84 115.55 196.84 99.93 188.84 99.93 188.84 96.03 208.49 96.03 208.49 99.93 200.48 99.93"/>
    <path class="cls-4" d="M210.43,96h13.46c3.65,0,6.55,1.59,6.55,6.27s-2.93,6.14-6.5,6.14h-.21l7.44,7.11h-5.63l-6.93-7h-4.54v7h-3.64ZM224,104.67c1.6,0,2.71-.61,2.71-2.37s-1.11-2.37-2.71-2.37h-10v4.74Z"/>
    <path class="cls-4" d="M249.61,96h3.64v11.71c0,5.77-3.39,8.23-10.19,8.23s-10.18-2.46-10.18-8.23V96h3.64v11.71c0,3.63,2.79,4.32,6.54,4.32s6.55-.69,6.55-4.32Z"/>
    <path class="cls-4" d="M265.88,114.13l1-3.74a28.52,28.52,0,0,0,9.77,1.7c1.12,0,5.73,0,5.73-2.37,0-1.39-1.65-1.51-5.68-1.75-4.87-.31-10.18-.65-10.18-6s5.28-6.36,9.55-6.36a36.69,36.69,0,0,1,8.69,1.14l-.76,3.83a33.42,33.42,0,0,0-8.53-1.06c-.88,0-5.24,0-5.24,2.23,0,1.89,3.25,2.06,6.64,2.2,4.76.22,9.22.81,9.22,5.58,0,5.46-5.87,6.44-10.09,6.44a28.61,28.61,0,0,1-10.11-1.84"/>
    <path class="cls-4" d="M296.52,100.49c5.62,0,8.73,3.23,8.73,7.73s-3.11,7.75-8.73,7.75-8.74-3.27-8.74-7.75,3.11-7.73,8.74-7.73m0,11.6c3.34,0,5-1.64,5-3.87s-1.68-3.85-5-3.85-5,1.62-5,3.85,1.68,3.87,5,3.87"/>
    <polygon class="cls-4" points="307.19 96.03 310.83 95.61 310.83 115.55 307.19 115.55 307.19 96.03"/>
    <path class="cls-4" d="M313.26,100.91h3.64v7.39c0,2.26.87,3.79,4.56,3.79,3,0,5.07-1.53,5.21-2.54v-8.64h3.64v14.64h-3.2l-.24-2.12,0,0a8.16,8.16,0,0,1-6.28,2.57c-5.39,0-7.3-3.26-7.3-7.64Z"/>
    <path class="cls-4" d="M337.11,100.91h3.71v3.46h-3.71v6.44c0,1.34.48,1.67,1.65,1.67.53,0,1.21-.08,2.06-.14v3.21a15.48,15.48,0,0,1-3.1.42c-2.72,0-4.25-1.34-4.25-5.16v-6.44h-1.7v-3.46h1.7V97.29l3.64-.42Z"/>
    <path class="cls-4" d="M343.25,95.81h3.64v3.34h-3.64Zm0,19.74V101.1l3.64-.41v14.86Z"/>
    <path class="cls-4" d="M358.05,100.49c5.62,0,8.73,3.23,8.73,7.73s-3.11,7.75-8.73,7.75-8.74-3.27-8.74-7.75,3.11-7.73,8.74-7.73m0,11.6c3.34,0,5-1.64,5-3.87s-1.68-3.85-5-3.85-5,1.62-5,3.85,1.68,3.87,5,3.87"/>
    <path class="cls-4" d="M382.14,115.55v-7.39c0-2.18-.87-3.79-4.56-3.79a21.18,21.18,0,0,0-5.22.86v10.32h-3.64V101.1l3.52-.41.1,1.14,0,0a11.75,11.75,0,0,1,5.58-1.37c5.65,0,7.84,3.26,7.84,7.64v7.42Z"/>
    <path class="cls-4" d="M388.45,110.92a29.45,29.45,0,0,0,7.93,1.17c1.31,0,5.07,0,5.07-1.17,0-.86-2.26-.78-4.9-.84-3.81-.11-8.44-.53-8.44-4.63,0-4.68,5.29-5,8.17-5a40,40,0,0,1,7.76.84l-.58,3.85a34.88,34.88,0,0,0-7.83-.78c-2.36,0-3.81.22-3.81,1.08s2.11,1,4.63,1c3.86.05,8.71.25,8.71,4.4,0,4.85-6.67,5.08-9.19,5.08a26.87,26.87,0,0,1-8.25-1.23Z"/>
    <path class="cls-5" d="M63,145.08c-4.78,0-8.29-3.94-8.29-9.13s3.51-8.76,8.29-8.76h4.15c4.92,0,8.34,3.57,8.34,8.76s-3.49,9.13-8.34,9.13Zm4.15-2.39c3.51,0,6-2.83,6-6.62s-2.48-6.49-6-6.49H63c-3.44,0-6,2.65-6,6.49s2.5,6.62,6,6.62Z"/>
    <path class="cls-5" d="M80.1,130.78v14.3H77.88V128.44c0-.91.48-1.47,1.22-1.47a1.54,1.54,0,0,1,1.09.56l13.14,13.86v-14.3h2.22v16.76c0,.91-.5,1.45-1.17,1.45a1.71,1.71,0,0,1-1.19-.62Z"/>
    <path class="cls-5" d="M98.48,145.08V127.19h15.23v2.39H100.79v13.11h12.95v2.39ZM103,134.87h10v2.21H103Z"/>
    <polygon class="cls-5" points="128.77 145.08 128.77 129.58 121.97 129.58 121.97 127.19 137.89 127.19 137.89 129.58 131.09 129.58 131.09 145.08 128.77 145.08"/>
    <path class="cls-5" d="M139.89,145.08V127.19h15.24v2.39H142.21v13.11h12.94v2.39Zm4.56-10.21h10v2.21h-10Z"/>
    <path class="cls-5" d="M176.3,145.08l-2.77-4.8H164.4l1.15-2.07h6.78l-4.58-7.92-8.53,14.79h-2.65l10.13-17.35a1.21,1.21,0,0,1,2.27,0l10.12,17.35Z"/>
    <path class="cls-5" d="M202.8,145.08,199,131.18l-5.22,13.23a1.26,1.26,0,0,1-1.2.92,1.29,1.29,0,0,1-1.22-.92l-5.2-13.23-3.82,13.9H180l4.68-17.1a1.15,1.15,0,0,1,1.2-1,1.24,1.24,0,0,1,1.19.83l5.54,14,5.52-14a1.18,1.18,0,0,1,1.14-.83c.6,0,1,.34,1.15,1l4.68,17.1Z"/>
    <polygon class="cls-5" points="207.11 147.98 207.27 141.93 209.64 141.93 208.61 147.98 207.11 147.98"/>
    <path class="cls-5" d="M227.09,145.08c-4.78,0-8.29-3.94-8.29-9.13s3.51-8.76,8.29-8.76h4.15c4.92,0,8.34,3.57,8.34,8.76s-3.49,9.13-8.34,9.13Zm4.15-2.39c3.51,0,6-2.83,6-6.62s-2.48-6.49-6-6.49h-4.15c-3.44,0-6,2.65-6,6.49s2.5,6.62,6,6.62Z"/>
    <path class="cls-5" d="M244.2,130.78v14.3H242V128.44c0-.91.48-1.47,1.22-1.47a1.54,1.54,0,0,1,1.09.56l13.14,13.86v-14.3h2.22v16.76c0,.91-.5,1.45-1.17,1.45a1.75,1.75,0,0,1-1.2-.62Z"/>
    <path class="cls-5" d="M262.58,145.08V127.19h15.23v2.39H264.89v13.11h12.95v2.39Zm4.56-10.21h10v2.21h-10Z"/>
    <path class="cls-5" d="M308.94,145.08l-3.82-13.9-5.23,13.23a1.25,1.25,0,0,1-1.19.92,1.28,1.28,0,0,1-1.22-.92l-5.21-13.23-3.82,13.9h-2.29l4.68-17.1a1.15,1.15,0,0,1,1.19-1,1.25,1.25,0,0,1,1.2.83l5.54,14,5.51-14a1.2,1.2,0,0,1,1.15-.83c.6,0,1,.34,1.15,1l4.68,17.1Z"/>
    <rect class="cls-5" x="313.42" y="127.19" width="2.32" height="17.89"/>
    <path class="cls-5" d="M318.91,145.08v-2.39h12.92a2.67,2.67,0,0,0,3-2.83c0-1.84-1.05-2.78-3-2.78h-8.12a4.78,4.78,0,0,1-5.07-5c0-2.81,1.8-4.9,5.12-4.9h12.39v2.39H323.76a2.49,2.49,0,0,0-2.7,2.65,2.46,2.46,0,0,0,2.67,2.64h8.1c3.36,0,5.15,1.72,5.15,5.09,0,2.93-1.69,5.12-5.15,5.12Z"/>
    <path class="cls-5" d="M339.58,145.08v-2.39H352.5a2.67,2.67,0,0,0,3-2.83c0-1.84-1-2.78-3-2.78h-8.12a4.77,4.77,0,0,1-5.06-5c0-2.81,1.79-4.9,5.11-4.9h12.39v2.39H344.43a2.49,2.49,0,0,0-2.7,2.65,2.46,2.46,0,0,0,2.67,2.64h8.1c3.36,0,5.16,1.72,5.16,5.09,0,2.93-1.7,5.12-5.16,5.12Z"/>
    <rect class="cls-5" x="360.42" y="127.19" width="2.32" height="17.89"/>
    <path class="cls-5" d="M373.69,145.08c-4.77,0-8.28-3.94-8.28-9.13s3.51-8.76,8.28-8.76h4.16c4.92,0,8.33,3.57,8.33,8.76s-3.48,9.13-8.33,9.13Zm4.16-2.39c3.51,0,6-2.83,6-6.62s-2.49-6.49-6-6.49h-4.16c-3.44,0-6,2.65-6,6.49s2.51,6.62,6,6.62Z"/>
    <path class="cls-5" d="M390.8,130.78v14.3h-2.22V128.44c0-.91.48-1.47,1.22-1.47a1.54,1.54,0,0,1,1.1.56L404,141.39v-14.3h2.23v16.76c0,.91-.51,1.45-1.18,1.45a1.75,1.75,0,0,1-1.19-.62Z"/>
    <polygon class="cls-3" points="433 20.35 352.53 26.06 365.69 54.38 433 20.35"/>
  </g>
</svg>
